<svg xmlns="http://www.w3.org/2000/svg" width="80" height="80" viewBox="0 0 80 80"><path d="M40 80C17.944 80 0 62.056 0 40S17.944 0 40 0s40 17.944 40 40-17.944 40-40 40zm0-69c-15.99 0-29 13.01-29 29s13.01 29 29 29 29-13.01 29-29-13.01-29-29-29zM49.92 54.328c-1.127 0-2.254-.43-3.115-1.29L26.962 33.194c-1.72-1.72-1.72-4.51 0-6.232 1.72-1.72 4.51-1.72 6.232 0l19.843 19.842c1.72 1.72 1.72 4.51 0 6.232-.86.86-1.988 1.29-3.116 1.29zM30.08 54.328c-1.13 0-2.256-.43-3.117-1.29-1.72-1.722-1.72-4.512 0-6.233l19.843-19.842c1.72-1.72 4.51-1.72 6.232 0 1.72 1.72 1.72 4.51 0 6.232L33.195 53.038c-.86.86-1.99 1.29-3.116 1.29z"/></svg>