<svg xmlns="http://www.w3.org/2000/svg" width="72" height="72" viewBox="0 0 72 72"><path d="M36 72C16.15 72 0 55.85 0 36S16.15 0 36 0s36 16.15 36 36-16.15 36-36 36zm0-69C17.804 3 3 17.804 3 36s14.804 33 33 33 33-14.804 33-33S54.196 3 36 3zM45.92 47.42c-.383 0-.767-.145-1.06-.438L25.018 27.14c-.586-.587-.586-1.536 0-2.122s1.535-.586 2.12 0L46.983 44.86c.586.586.586 1.535 0 2.12-.293.294-.677.44-1.06.44zM26.08 47.42c-.385 0-.77-.145-1.062-.438-.586-.586-.586-1.535 0-2.12L44.86 25.017c.587-.586 1.536-.586 2.122 0s.586 1.535 0 2.12L27.14 46.982c-.294.294-.678.44-1.06.44z"/></svg>