<svg xmlns="http://www.w3.org/2000/svg"><symbol viewBox="0 0 32 32" id="icon-clock"><title>clock</title><path d="M16 0C7.163 0 0 7.164 0 16s7.163 16 16 16 16-7.164 16-16S24.837 0 16 0zm0 28C9.373 28 4 22.627 4 16S9.373 4 16 4s12 5.373 12 12-5.373 12-12 12zm7-14h-5V7c0-.552-.447-1-1-1h-2c-.553 0-1 .448-1 1v10c0 .553.447 1 1 1h8c.553 0 1-.447 1-1v-2c0-.553-.447-1-1-1z" fill="#444"/></symbol><symbol viewBox="0 0 32 32" id="icon-mail"><title>mail</title><path d="M28 5H4C1.79 5 0 6.792 0 9v13c0 2.21 1.79 4 4 4h24c2.21 0 4-1.79 4-4V9c0-2.208-1.79-4-4-4zM2 10.25l7 5.25-7 5.25v-10.5zM30 22c0 1.104-.898 2-2 2H4c-1.103 0-2-.896-2-2l7.832-5.875 4.368 3.277c.533.398 1.166.6 1.8.6.633 0 1.266-.2 1.8-.6l4.368-3.277L30 22zm0-1.25l-7-5.25 7-5.25v10.5zm-12.8-2.148c-.35.262-.764.4-1.2.4s-.85-.14-1.2-.4L2 9c0-1.103.897-2 2-2h24c1.102 0 2 .897 2 2l-12.8 9.602z" fill="#444"/></symbol><symbol viewBox="0 0 32 32" id="icon-mobile"><title>mobile</title><path d="M22 0H10C7.79 0 6 1.79 6 4v24c0 2.21 1.79 4 4 4h12c2.21 0 4-1.79 4-4V4c0-2.21-1.79-4-4-4zm-5.5 3h3c.275 0 .5.224.5.5s-.225.5-.5.5h-3c-.276 0-.5-.224-.5-.5s.224-.5.5-.5zM13 2c.552 0 1 .448 1 1s-.448 1-1 1-1-.448-1-1 .448-1 1-1zm5 27c0 .553-.447 1-1 1h-2c-.552 0-1-.447-1-1v-2c0-.553.448-1 1-1h2c.553 0 1 .447 1 1v2zm6-6c0 .553-.447 1-1 1H9c-.552 0-1-.447-1-1V7c0-.552.448-1 1-1h14c.553 0 1 .448 1 1v16z" fill="#444"/></symbol></svg>