<svg xmlns="http://www.w3.org/2000/svg"><symbol viewBox="0 0 80 80" id="icon-about"><title>about</title><circle cx="40" cy="40" r="34.5"/><path d="M40 80C17.944 80 0 62.056 0 40S17.944 0 40 0s40 17.944 40 40-17.944 40-40 40zm0-69c-15.99 0-29 13.01-29 29s13.01 29 29 29 29-13.01 29-29-13.01-29-29-29z"/></symbol><symbol viewBox="0 0 92.667 61" id="icon-blog"><title>blog</title><path d="M0 0h92.667v11H0zM0 25h92.667v11H0zM0 50h62v11H0z"/></symbol><symbol viewBox="0 0 80 80" id="icon-brand"><title>brand</title><path d="M40 80C17.944 80 0 62.056 0 40S17.944 0 40 0s40 17.944 40 40-17.944 40-40 40zm0-69c-15.99 0-29 13.01-29 29s13.01 29 29 29 29-13.01 29-29-13.01-29-29-29z"/></symbol><symbol viewBox="0 0 72 72" id="icon-close-active"><title>close-active</title><path d="M36 72C16.15 72 0 55.85 0 36S16.15 0 36 0s36 16.15 36 36-16.15 36-36 36zm0-69C17.804 3 3 17.804 3 36s14.804 33 33 33 33-14.804 33-33S54.196 3 36 3zM45.92 47.42c-.383 0-.767-.145-1.06-.438L25.018 27.14c-.586-.587-.586-1.536 0-2.122s1.535-.586 2.12 0L46.983 44.86c.586.586.586 1.535 0 2.12-.293.294-.677.44-1.06.44zM26.08 47.42c-.385 0-.77-.145-1.062-.438-.586-.586-.586-1.535 0-2.12L44.86 25.017c.587-.586 1.536-.586 2.122 0s.586 1.535 0 2.12L27.14 46.982c-.294.294-.678.44-1.06.44z"/></symbol><symbol viewBox="0 0 80 80" id="icon-close"><title>close</title><path d="M40 80C17.944 80 0 62.056 0 40S17.944 0 40 0s40 17.944 40 40-17.944 40-40 40zm0-69c-15.99 0-29 13.01-29 29s13.01 29 29 29 29-13.01 29-29-13.01-29-29-29zM49.92 54.328c-1.127 0-2.254-.43-3.115-1.29L26.962 33.194c-1.72-1.72-1.72-4.51 0-6.232 1.72-1.72 4.51-1.72 6.232 0l19.843 19.842c1.72 1.72 1.72 4.51 0 6.232-.86.86-1.988 1.29-3.116 1.29zM30.08 54.328c-1.13 0-2.256-.43-3.117-1.29-1.72-1.722-1.72-4.512 0-6.233l19.843-19.842c1.72-1.72 4.51-1.72 6.232 0 1.72 1.72 1.72 4.51 0 6.232L33.195 53.038c-.86.86-1.99 1.29-3.116 1.29z"/></symbol><symbol viewBox="0 0 133.413 39.201" id="icon-contact"><title>contact</title><path d="M133.413 39.2h-11V11H11v28.2H0V0h133.413z"/></symbol><symbol viewBox="0 0 92.951 118.717" id="icon-experiments"><title>experiments</title><path d="M86.45 118.717h-80V11H0V0h17.45v107.717h58V0h17.5v11h-6.5zM11.95 41.285h32.977v11H11.95zM11.95 69.952h32.977v11H11.95z"/></symbol><symbol viewBox="0 0 84.701 118.717" id="icon-mobile"><title>mobile</title><path d="M84.7 118.717H0V0h84.7v118.717zm-73.7-11h62.7V11H11v96.717z"/></symbol><symbol viewBox="0 0 133.412 84.701" id="icon-website"><title>website</title><path d="M133.412 84.7H0V0h133.412v84.7zM11 73.7h111.412V11H11v62.7z"/></symbol></svg>