<?xml version="1.0" encoding="utf-8"?>
<!-- Generated by IcoMoon.io -->
<!DOCTYPE svg PUBLIC "-//W3C//DTD SVG 1.1//EN" "http://www.w3.org/Graphics/SVG/1.1/DTD/svg11.dtd">
<svg version="1.1" xmlns="http://www.w3.org/2000/svg" xmlns:xlink="http://www.w3.org/1999/xlink" width="32" height="32" viewBox="0 0 32 32">
<path d="M16 0c-8.837 0-16 7.164-16 16s7.163 16 16 16 16-7.164 16-16c0-8.836-7.163-16-16-16zM16 28c-6.627 0-12-5.373-12-12s5.373-12 12-12 12 5.373 12 12-5.373 12-12 12zM23 14h-5v-7c0-0.552-0.447-1-1-1h-2c-0.553 0-1 0.448-1 1v10c0 0.553 0.447 1 1 1h8c0.553 0 1-0.447 1-1v-2c0-0.553-0.447-1-1-1z" fill="#444444"></path>
</svg>
