<?xml version="1.0" encoding="utf-8"?>
<!-- Generator: Adobe Illustrator 17.0.0, SVG Export Plug-In . SVG Version: 6.00 Build 0)  -->
<!DOCTYPE svg PUBLIC "-//W3C//DTD SVG 1.1//EN" "http://www.w3.org/Graphics/SVG/1.1/DTD/svg11.dtd">
<svg version="1.1" id="Layer_1" xmlns="http://www.w3.org/2000/svg" xmlns:xlink="http://www.w3.org/1999/xlink" x="0px" y="0px"
	 width="80px" height="80px" viewBox="0 0 80 80" enable-background="new 0 0 80 80" xml:space="preserve">
<path d="M40,80C17.944,80,0,62.056,0,40S17.944,0,40,0s40,17.944,40,40S62.056,80,40,80z M40,11c-15.991,0-29,13.009-29,29
	s13.009,29,29,29s29-13.009,29-29S55.991,11,40,11z"/>
<path d="M49.921,54.328c-1.128,0-2.255-0.43-3.116-1.291L26.962,33.195c-1.721-1.721-1.721-4.511,0-6.232
	c1.721-1.721,4.511-1.721,6.232,0l19.843,19.842c1.721,1.721,1.721,4.511,0,6.232C52.177,53.898,51.049,54.328,49.921,54.328z"/>
<path d="M30.079,54.328c-1.128,0-2.255-0.43-3.116-1.291c-1.721-1.721-1.721-4.511,0-6.232l19.843-19.842
	c1.721-1.721,4.511-1.72,6.232,0c1.721,1.721,1.721,4.511,0,6.232L33.195,53.038C32.334,53.898,31.206,54.328,30.079,54.328z"/>
</svg>
