<?xml version="1.0" encoding="utf-8"?>
<!-- Generator: Adobe Illustrator 17.0.0, SVG Export Plug-In . SVG Version: 6.00 Build 0)  -->
<!DOCTYPE svg PUBLIC "-//W3C//DTD SVG 1.1//EN" "http://www.w3.org/Graphics/SVG/1.1/DTD/svg11.dtd">
<svg version="1.1" id="Layer_1" xmlns="http://www.w3.org/2000/svg" xmlns:xlink="http://www.w3.org/1999/xlink" x="0px" y="0px"
	 width="72px" height="72px" viewBox="0 0 72 72" enable-background="new 0 0 72 72" xml:space="preserve">
<path d="M36,72C16.149,72,0,55.851,0,36S16.149,0,36,0s36,16.149,36,36S55.851,72,36,72z M36,3C17.804,3,3,17.804,3,36
	s14.804,33,33,33s33-14.804,33-33S54.196,3,36,3z"/>
<path d="M45.921,47.421c-0.384,0-0.768-0.146-1.061-0.439L25.018,27.139c-0.586-0.586-0.586-1.535,0-2.121s1.535-0.586,2.121,0
	L46.982,44.86c0.586,0.586,0.586,1.535,0,2.121C46.689,47.274,46.305,47.421,45.921,47.421z"/>
<path d="M26.079,47.421c-0.384,0-0.768-0.146-1.061-0.439c-0.586-0.586-0.586-1.535,0-2.121l19.843-19.843
	c0.586-0.586,1.535-0.586,2.121,0s0.586,1.535,0,2.121L27.139,46.981C26.846,47.274,26.462,47.421,26.079,47.421z"/>
</svg>
