<?xml version="1.0" encoding="utf-8"?>
<!-- Generated by IcoMoon.io -->
<!DOCTYPE svg PUBLIC "-//W3C//DTD SVG 1.1//EN" "http://www.w3.org/Graphics/SVG/1.1/DTD/svg11.dtd">
<svg version="1.1" xmlns="http://www.w3.org/2000/svg" xmlns:xlink="http://www.w3.org/1999/xlink" width="32" height="32" viewBox="0 0 32 32">
<path d="M22 0h-12c-2.209 0-4 1.791-4 4v24c0 2.209 1.791 4 4 4h12c2.209 0 4-1.791 4-4v-24c0-2.209-1.791-4-4-4zM16.5 3h3c0.275 0 0.5 0.224 0.5 0.5s-0.225 0.5-0.5 0.5h-3c-0.276 0-0.5-0.224-0.5-0.5s0.224-0.5 0.5-0.5zM13 2c0.552 0 1 0.448 1 1s-0.448 1-1 1-1-0.448-1-1 0.448-1 1-1zM18 29c0 0.553-0.447 1-1 1h-2c-0.552 0-1-0.447-1-1v-2c0-0.553 0.448-1 1-1h2c0.553 0 1 0.447 1 1v2zM24 23c0 0.553-0.447 1-1 1h-14c-0.552 0-1-0.447-1-1v-16c0-0.552 0.448-1 1-1h14c0.553 0 1 0.448 1 1v16z" fill="#444444"></path>
</svg>
