<svg xmlns="http://www.w3.org/2000/svg" width="32" height="32" viewBox="0 0 32 32"><path d="M28 5H4C1.79 5 0 6.792 0 9v13c0 2.21 1.79 4 4 4h24c2.21 0 4-1.79 4-4V9c0-2.208-1.79-4-4-4zM2 10.25l7 5.25-7 5.25v-10.5zM30 22c0 1.104-.898 2-2 2H4c-1.103 0-2-.896-2-2l7.832-5.875 4.368 3.277c.533.398 1.166.6 1.8.6.633 0 1.266-.2 1.8-.6l4.368-3.277L30 22zm0-1.25l-7-5.25 7-5.25v10.5zm-12.8-2.148c-.35.262-.764.4-1.2.4s-.85-.14-1.2-.4L2 9c0-1.103.897-2 2-2h24c1.102 0 2 .897 2 2l-12.8 9.602z" fill="#444"/></svg>