<svg xmlns="http://www.w3.org/2000/svg" width="32" height="32" viewBox="0 0 32 32"><path d="M22 0H10C7.79 0 6 1.79 6 4v24c0 2.21 1.79 4 4 4h12c2.21 0 4-1.79 4-4V4c0-2.21-1.79-4-4-4zm-5.5 3h3c.275 0 .5.224.5.5s-.225.5-.5.5h-3c-.276 0-.5-.224-.5-.5s.224-.5.5-.5zM13 2c.552 0 1 .448 1 1s-.448 1-1 1-1-.448-1-1 .448-1 1-1zm5 27c0 .553-.447 1-1 1h-2c-.552 0-1-.447-1-1v-2c0-.553.448-1 1-1h2c.553 0 1 .447 1 1v2zm6-6c0 .553-.447 1-1 1H9c-.552 0-1-.447-1-1V7c0-.552.448-1 1-1h14c.553 0 1 .448 1 1v16z" fill="#444"/></svg>